<svg width="20" height="20" viewBox="0 0 20 20" fill="none" xmlns="http://www.w3.org/2000/svg">
<path fill-rule="evenodd" clip-rule="evenodd" d="M10 1.5C14.687 1.5 18.5 5.313 18.5 10C18.5 14.687 14.687 18.5 10 18.5C5.313 18.5 1.5 14.687 1.5 10C1.5 5.313 5.313 1.5 10 1.5M10 20C15.514 20 20 15.514 20 10C20 4.486 15.514 0 10 0C4.486 0 0 4.486 0 10C0 15.514 4.486 20 10 20" fill="#6E6E6E"/>
<path fill-rule="evenodd" clip-rule="evenodd" d="M11.4414 14.2207C11.6334 14.2207 11.8264 14.1477 11.9724 13.9997C12.2644 13.7057 12.2634 13.2317 11.9704 12.9397L9.01839 9.99971L11.9704 7.06071C12.2634 6.76871 12.2644 6.29371 11.9724 5.99971C11.6804 5.70471 11.2064 5.70671 10.9124 5.99771L7.42639 9.46871C7.28539 9.60971 7.20639 9.80071 7.20639 9.99971C7.20639 10.1997 7.28539 10.3907 7.42639 10.5317L10.9124 14.0017C11.0584 14.1477 11.2504 14.2207 11.4414 14.2207" fill="#6E6E6E"/>
</svg>
