<?xml version="1.0" encoding="UTF-8" standalone="no"?>
<svg
   xmlns:dc="http://purl.org/dc/elements/1.1/"
   xmlns:cc="http://creativecommons.org/ns#"
   xmlns:rdf="http://www.w3.org/1999/02/22-rdf-syntax-ns#"
   xmlns:svg="http://www.w3.org/2000/svg"
   xmlns="http://www.w3.org/2000/svg"
   style="fill:none"
   id="svg24"
   version="1.1"
   viewBox="0 0 166.19225 62.28067"
   height="62.28067"
   width="166.19225">
  <metadata
     id="metadata30">
    <rdf:RDF>
      <cc:Work
         rdf:about="">
        <dc:format>image/svg+xml</dc:format>
        <dc:type
           rdf:resource="http://purl.org/dc/dcmitype/StillImage" />
        <dc:title></dc:title>
      </cc:Work>
    </rdf:RDF>
  </metadata>
  <defs
     id="defs28" />
  <path
     style="fill:#ae0000"
     id="path2"
     d="m 122.24233,0 h -29.1032 v 62.280669 h 29.1032 z" />
  <path
     style="fill:#ff8600"
     id="path4"
     d="m 93.13893,0 h -44.9216 v 62.280669 h 44.9216 z" />
  <path
     style="fill:#0065b1"
     id="path6"
     d="m 125.56233,0 h -3.321 v 62.280669 h 3.321 z" />
  <path
     style="fill:#e90a0a"
     id="path8"
     d="M 43.22313,0 H 0 v 62.280669 h 43.22313 z" />
  <path
     style="fill:#008f20"
     id="path10"
     d="m 166.19224,0 h -40.739 v 62.280669 h 40.739 z" />
  <path
     style="fill:#26221e"
     id="path12"
     d="m 48.21723,0 h -4.9941 v 62.280669 h 4.9941 z" />
  <path
     style="fill:#ffffff"
     id="path14"
     d="m 51.66503,32.760769 v 11.2662 h -5.7039 v -10.3801 c 0,-3.19 -1.4197,-4.6331 -3.7266,-4.6331 -2.5604,0 -4.3603,1.6456 -4.3603,5.1394 v 9.8738 h -5.704 v -10.3801 c 0,-3.19 -1.3436,-4.6331 -3.7266,-4.6331 -2.535,0 -4.3096,1.6456 -4.3096,5.1394 v 9.8738 h -5.7293 v -15.2664 h -2.2055 v -4.4052 h 6.7687 l 0.3042,3.0381 c 1.4196,-2.152 3.8787,-3.3166 6.7686,-3.3166 2.7379,0 5.0956,1.0634 6.4645,3.2153 1.5718,-2 4.1322,-3.2153 7.0982,-3.2153 4.69,0 8.0616,2.709 8.0616,8.6839 z" />
  <path
     style="fill:#ffffff"
     id="path16"
     d="m 78.94263,37.039269 c 0,4.4305 -3.5238,6.9876 -10.2418,6.9876 h -12.574 v -20.7603 h -2.7125 v -4.8103 h 14.5514 c 6.4137,0 9.684,2.6584 9.684,6.6585 0,2.557 -1.3183,4.5318 -3.397,5.6204 2.8646,0.9115 4.6899,3.0888 4.6899,6.3041 z m -16.9344,-14.1271 v 6.0255 h 5.2223 c 2.89,0 4.4617,-1.0127 4.4617,-3.0381 0,-2 -1.5717,-2.9874 -4.4617,-2.9874 z m 10.9516,13.5194 c 0,-2.1519 -1.6225,-3.1899 -4.6899,-3.1899 h -6.2617 v 6.3293 h 6.2617 c 3.0674,0 4.6899,-0.9621 4.6899,-3.1394 z" />
  <path
     style="fill:#ffffff"
     id="path18"
     d="m 102.13833,24.355369 v 19.6462 h -5.4503 v -2.2532 c -1.4196,1.7216 -3.5237,2.557 -6.1349,2.557 -5.5518,0 -9.8361,-3.9495 -9.8361,-10.1269 0,-6.1775 4.2843,-10.127 9.8361,-10.127 2.4084,0 4.4618,0.7596 5.8814,2.3799 v -2.076 z m -5.577,9.8484 c 0,-3.3925 -2.2055,-5.4432 -5.0195,-5.4432 -2.8646,0 -5.0448,2.0507 -5.0448,5.4432 0,3.3925 2.2055,5.4432 5.0448,5.4432 2.814,0 5.0195,-2.0507 5.0195,-5.4432 z" />
  <path
     style="fill:#ffffff"
     id="path20"
     d="m 127.15933,32.760669 v 11.2662 h -5.703 v -10.3801 c 0,-3.19 -1.471,-4.6331 -3.981,-4.6331 -2.737,0 -4.715,1.671 -4.715,5.2914 v 9.7218 h -5.704 v -15.2663 h -2.205 v -4.4052 h 6.768 l 0.305,3.0634 c 1.495,-2.2027 4.056,-3.3673 7.098,-3.3673 4.639,0.0254 8.137,2.7343 8.137,8.7092 z" />
  <path
     style="fill:#ffffff"
     id="path22"
     d="m 151.24333,44.026969 h -6.465 l -5.577,-8.5319 h -2.636 v 8.5319 h -5.704 v -27.1149 h 5.704 v 14.2537 h 2.636 l 5.273,-6.8104 h 6.363 l -6.692,8.6333 z" />
</svg>
