<svg width="88" height="88" viewBox="0 0 88 88" fill="none" xmlns="http://www.w3.org/2000/svg">
<path fill-rule="evenodd" clip-rule="evenodd" d="M11 16.5C7.9792 16.5 5.50001 18.9792 5.50001 22V66C5.50001 69.0209 7.9792 71.5 11 71.5H77C80.0208 71.5 82.5 69.0209 82.5 66V22C82.5 18.9792 80.0208 16.5 77 16.5H11ZM1.83334 22C1.83334 16.9542 5.95415 12.8334 11 12.8334H77C82.0459 12.8334 86.1667 16.9542 86.1667 22V66C86.1667 71.0459 82.0459 75.1667 77 75.1667H11C5.95415 75.1667 1.83334 71.0459 1.83334 66V22ZM12.8333 27.5H27.5V42.1667H12.8333V27.5ZM16.5 31.1667V38.5H23.8333V31.1667H16.5ZM11 49.5H77V53.1667H11V49.5ZM11 62.3334V58.6667H22V62.3334H11ZM36.6667 58.6667H51.3333V62.3334H36.6667V58.6667Z" fill="#6E6E6E"/>
</svg>
