<svg width="102" height="76" viewBox="0 0 102 76" fill="none" xmlns="http://www.w3.org/2000/svg">
<path d="M89.394 0.332031H12.044C5.5982 0.332031 0.441528 5.4887 0.441528 11.9345V63.5012C0.441528 69.9471 5.5982 75.5334 12.4738 75.5334H89.8238C96.2696 75.5334 101.856 70.3768 101.856 63.5012V11.9345C101.426 5.4887 96.2696 0.332031 89.394 0.332031ZM12.044 6.77787H89.394C92.4021 6.77787 94.9804 9.3562 94.9804 12.3643V13.2237H6.88736V11.9345C6.88736 8.92648 9.03597 6.77787 12.044 6.77787ZM94.9804 19.6695V26.1154H6.88736V19.6695H94.9804ZM89.394 69.0876H12.044C9.03597 69.0876 6.45764 66.5093 6.45764 63.5012V32.1315H94.5507V63.5012C94.9804 66.5093 92.4021 69.0876 89.394 69.0876Z" fill="#6E6E6E"/>
<path d="M73.4943 66.9386H92.8318V47.6011H73.4943V66.9386ZM79.9402 53.6172H86.386V60.063H79.9402V53.6172Z" fill="#6E6E6E"/>
<path d="M46.8514 47.6011H12.0439V54.0469H46.8514V47.6011Z" fill="#6E6E6E"/>
<path d="M46.8514 56.1958H12.0439V62.6416H46.8514V56.1958Z" fill="#6E6E6E"/>
</svg>
