<svg width="77" height="57" viewBox="0 0 77 57" fill="none" xmlns="http://www.w3.org/2000/svg">
<path d="M67.0541 0.587463H9.3041C4.4916 0.587463 0.641602 4.43746 0.641602 9.24996V47.75C0.641602 52.5625 4.4916 56.7333 9.62493 56.7333H67.3749C72.1874 56.7333 76.3583 52.8833 76.3583 47.75V9.24996C76.0374 4.43746 72.1874 0.587463 67.0541 0.587463ZM9.3041 5.39996H67.0541C69.2999 5.39996 71.2249 7.32496 71.2249 9.5708V10.2125H5.4541V9.24996C5.4541 7.00413 7.05827 5.39996 9.3041 5.39996ZM71.2249 15.025V19.8375H5.4541V15.025H71.2249ZM67.0541 51.9208H9.3041C7.05827 51.9208 5.13327 49.9958 5.13327 47.75V24.3291H70.9041V47.75C71.2249 49.9958 69.2999 51.9208 67.0541 51.9208Z" fill="#6E6E6E"/>
<path d="M55.1832 50.3166H69.6207V35.8791H55.1832V50.3166ZM59.9957 40.3708H64.8082V45.1833H59.9957V40.3708Z" fill="#6E6E6E"/>
<path d="M35.2915 35.8791H9.30396V40.6916H35.2915V35.8791Z" fill="#6E6E6E"/>
<path d="M35.2915 42.2958H9.30396V47.1083H35.2915V42.2958Z" fill="#6E6E6E"/>
</svg>
