<svg width="17" height="22" viewBox="0 0 17 22" fill="none" xmlns="http://www.w3.org/2000/svg">
<path d="M4.3 15.2H3.5V12.8H2V19.3H3.5V16.8H4.3V19.3H5.8V12.8H4.3V15.2Z" fill="#AE0000"/>
<path d="M13 12.8L12.3 14.3L11.5 12.8H10V19.3H11.5V16.1L12.2 17.7L13 16.1V19.3H14.5V12.8H13Z" fill="#AE0000"/>
<path d="M6.20001 14.3H7.10001V19.3H8.60001V14.3H9.60001V12.8H6.20001V14.3Z" fill="#AE0000"/>
<path d="M11.1 0H0V21.5H16.5V5.4L11.1 0ZM11.5 2.6L13.9 5H11.5V2.6ZM1.5 20V1.5H10V6.5H15V20H1.5Z" fill="#AE0000"/>
</svg>
