<svg width="78" height="110" viewBox="0 0 78 110" fill="none" xmlns="http://www.w3.org/2000/svg">
<path d="M68.5801 0.217773H8.57527C3.88739 0.217773 0.137085 3.96808 0.137085 8.65596V101.476C0.137085 106.164 3.88739 109.914 8.57527 109.914H69.0489C73.7368 109.914 77.4871 106.164 77.4871 101.476V9.12474C77.4871 4.43686 73.268 0.217773 68.5801 0.217773ZM8.57527 7.71838H69.0489C69.9865 7.71838 70.4553 8.18717 70.4553 9.12474V80.8493H6.70012V9.12474C6.70012 8.18717 7.63769 7.71838 8.57527 7.71838ZM68.5801 103.351H8.57527C7.63769 103.351 7.16891 102.882 7.16891 101.945V87.4123H70.4553V101.945C70.4553 102.882 69.5177 103.351 68.5801 103.351Z" fill="#6E6E6E"/>
<path d="M26.8579 92.1001V99.1319H48.8909H50.2973V92.1001H48.8909H26.8579Z" fill="#6E6E6E"/>
<path d="M34.8159 59.3088L18.9625 44.7956L14.163 50.0751L35.2958 70.3477L65.3676 32.0012L59.6082 27.6816L34.8159 59.3088Z" fill="#6E6E6E"/>
</svg>
