<svg width="84" height="84" viewBox="0 0 84 84" fill="none" xmlns="http://www.w3.org/2000/svg">
<path d="M41.925 0C18.6333 0 0 18.9917 0 41.925C0 64.8583 18.6333 83.85 41.925 83.85C65.2167 83.85 83.85 65.2167 83.85 41.925C83.85 18.6333 65.2167 0 41.925 0ZM41.925 78.475C21.8583 78.475 5.375 62.35 5.375 41.925C5.375 21.5 21.8583 5.375 41.925 5.375C61.9917 5.375 78.475 21.8583 78.475 41.925C78.475 61.9917 61.9917 78.475 41.925 78.475Z" fill="#6E6E6E"/>
<path d="M37.6247 54.4666L22.9331 40.1332L19.3497 44.0749L37.9831 62.7082L64.8581 26.8749L60.5581 23.6499L37.6247 54.4666Z" fill="#6E6E6E"/>
</svg>
