<svg width="83" height="86" viewBox="0 0 83 86" fill="none" xmlns="http://www.w3.org/2000/svg">
<path d="M46.584 65.5747C43.0007 65.5747 40.134 68.4414 40.134 72.0247C40.134 75.608 43.0007 78.4747 46.584 78.4747C50.1674 78.4747 53.034 75.608 53.034 72.0247C53.034 68.4414 50.1674 65.5747 46.584 65.5747ZM45.509 71.6664C45.509 71.308 45.8674 70.9497 46.2257 70.9497C46.584 70.9497 46.9424 71.308 46.9424 71.6664C47.3007 72.7414 45.509 72.7414 45.509 71.6664Z" fill="#6E6E6E"/>
<path d="M46.584 58.4082C39.059 58.4082 32.9673 64.4999 32.9673 72.0249C32.9673 79.5499 39.059 85.6415 46.584 85.6415C54.1089 85.6415 60.2006 79.5499 60.2006 72.0249C60.2006 64.4999 54.1089 58.4082 46.584 58.4082ZM46.584 79.9082C42.284 79.9082 38.7006 76.3249 38.7006 72.0249C38.7006 67.7249 42.284 64.1415 46.584 64.1415C50.884 64.1415 54.4673 67.7249 54.4673 72.0249C54.4673 76.3249 50.884 79.9082 46.584 79.9082Z" fill="#6E6E6E"/>
<path d="M40.8506 52.6749L19.3506 4.6582L0.717285 12.1832L2.86729 17.1999L16.484 11.4665L37.984 59.8415L72.7423 44.4332L70.2339 39.4165L40.8506 52.6749Z" fill="#6E6E6E"/>
<path d="M41.2085 51.2415L82.0585 32.9665L71.3085 8.59985L30.4585 26.8749L41.2085 51.2415ZM75.2502 30.4582L44.0752 44.4332L37.6252 29.7415L68.8002 15.7665L75.2502 30.4582Z" fill="#6E6E6E"/>
<path d="M53.0334 15.7666L46.5834 0.716553L23.2917 11.1082L29.7417 25.7999L53.0334 15.7666ZM43.7167 7.88322L45.8667 12.8999L32.6084 18.6332L30.4584 13.9749L43.7167 7.88322Z" fill="#6E6E6E"/>
</svg>
