<svg width="68" height="81" viewBox="0 0 68 81" fill="none" xmlns="http://www.w3.org/2000/svg">
<path d="M10.25 12.6416V45.4416H19.8167V57.0583L38.6083 45.4416H67.3083V12.6416H10.25ZM62.1833 40.3166H37.2417L24.9417 47.8333V40.3166H15.375V17.7666H62.1833V40.3166Z" fill="#6E6E6E"/>
<path d="M49.8833 58.425H5.125V6.15C5.125 5.46667 5.80833 5.125 6.15 5.125H48.8583C49.5417 5.125 49.8833 5.80833 49.8833 6.15V9.56667H55.0083V6.15C55.0083 2.73333 52.275 0 48.8583 0H6.15C2.73333 0 0 2.73333 0 6.15V74.1417C0 77.5583 2.73333 80.2917 6.15 80.2917H48.8583C52.275 80.2917 55.0083 77.5583 55.0083 74.1417V49.5417H49.8833V58.425ZM50.225 74.1417C50.225 74.4833 49.5417 75.1667 49.2 75.1667H6.15C5.46667 75.1667 5.125 74.4833 5.125 74.1417V63.55H50.225V74.1417Z" fill="#6E6E6E"/>
<path d="M35.8752 66.625H19.1335V71.75H35.8752V66.625Z" fill="#6E6E6E"/>
</svg>
