<svg width="97" height="89" viewBox="0 0 97 89" fill="none" xmlns="http://www.w3.org/2000/svg">
<path d="M66.3746 58.4749H29.2163V64.5998H66.3746V58.4749Z" fill="#6E6E6E"/>
<path d="M65.1497 41.7331L54.9413 37.2415L57.7996 34.3831V28.6665C57.7996 23.7665 53.7163 18.0498 47.183 18.0498C40.6496 18.0498 36.5663 23.3581 36.5663 28.2581V34.3831L39.4246 37.2415L29.2163 41.7331V55.6165H65.1497V41.7331ZM59.0246 49.4915H35.3413V45.4081L45.958 40.9165V34.7915L43.0996 31.9331V28.6665C43.0996 26.6248 44.733 24.5831 47.5913 24.5831C50.4496 24.5831 52.083 27.0331 52.083 29.0748V32.3415L49.2246 35.1998V41.3248L59.8413 45.8165V49.4915H59.0246Z" fill="#6E6E6E"/>
<path d="M88.4244 0.899902H7.57437C3.49103 0.899902 0.224365 4.16657 0.224365 8.2499V64.5999C0.224365 68.6832 3.49103 71.9499 7.57437 71.9499H45.141V82.1582H31.666V88.2832H64.3327V82.1582H51.266V71.9499H88.8327C92.916 71.9499 96.1827 68.6832 96.1827 64.5999V8.65824C96.1827 4.16657 92.5077 0.899902 88.4244 0.899902ZM68.8244 66.2332H27.1744V16.8249H68.8244V66.2332ZM90.0577 65.0082C90.0577 65.8249 89.6494 66.2332 88.8327 66.2332H75.3577V10.6999H21.0494V66.2332H7.57437C6.7577 66.2332 6.34937 65.8249 6.34937 65.0082V8.65824C6.34937 7.84157 6.7577 7.43324 7.57437 7.43324H88.4244C89.241 7.43324 89.6494 7.84157 89.6494 8.65824V65.0082H90.0577Z" fill="#6E6E6E"/>
</svg>
