<svg width="119" height="119" viewBox="0 0 119 119" fill="none" xmlns="http://www.w3.org/2000/svg">
<path d="M59.9385 22.3374L71.1888 44.1529L72.005 45.7358L73.7698 45.9757L96.3971 49.0518L80.1387 65.7774L78.8653 67.0874L79.2449 68.8745L84.0208 91.3535L61.5619 79.2546L59.9385 78.3801L58.3152 79.2546L35.8563 91.3535L40.6322 68.8745L41.0118 67.0874L39.7384 65.7774L23.48 49.0518L46.1073 45.9757L47.8721 45.7358L48.6883 44.1529L59.9385 22.3374Z" stroke="#6E6E6E" stroke-width="6.8456"/>
<path d="M59.5382 0.506348C26.7949 0.506348 0.600342 27.2047 0.600342 59.4442C0.600342 91.6837 26.7949 118.382 59.5382 118.382C92.2815 118.382 118.476 92.1875 118.476 59.4442C118.476 26.7009 92.2815 0.506348 59.5382 0.506348ZM59.5382 110.826C31.3286 110.826 8.15648 88.1575 8.15648 59.4442C8.15648 30.7309 31.3286 8.06248 59.5382 8.06248C87.7478 8.06248 110.92 31.2346 110.92 59.4442C110.92 87.6538 87.7478 110.826 59.5382 110.826Z" fill="#6E6E6E"/>
</svg>
