<svg width="74" height="68" viewBox="0 0 74 68" fill="none" xmlns="http://www.w3.org/2000/svg">
<path d="M68.7584 67.8522L65.675 50.5855L43.7834 41.3355V32.7022L49.95 26.5355V18.2105C49.95 11.7355 44.7084 5.2605 36.6917 5.2605C28.675 5.2605 23.7417 11.7355 23.7417 17.9022V26.5355L29.9084 32.7022V41.3355L8.0167 50.5855L5.2417 67.8522L0.616699 67.2355L4.00837 47.5022L25.2834 38.2522V34.5522L19.1167 28.3855V17.9022C19.1167 9.57716 25.9 0.635498 36.6917 0.635498C47.4834 0.635498 54.575 9.8855 54.575 18.5188V28.6938L48.4084 34.8605V38.2522L69.6834 47.5022L73.075 67.2355L68.7584 67.8522Z" fill="#6E6E6E"/>
</svg>
