<svg width="59" height="83" viewBox="0 0 59 83" fill="none" xmlns="http://www.w3.org/2000/svg">
<path d="M51.4001 0.700043H6.60005C3.10005 0.700043 0.300049 3.50004 0.300049 7.00004V76.3C0.300049 79.8 3.10005 82.6 6.60005 82.6H51.7501C55.2501 82.6 58.0501 79.8 58.0501 76.3V7.35004C58.0501 3.85004 54.9001 0.700043 51.4001 0.700043ZM6.60005 6.30004H51.7501C52.4501 6.30004 52.8 6.65004 52.8 7.35004V60.9H5.20005V7.35004C5.20005 6.65004 5.90005 6.30004 6.60005 6.30004ZM51.4001 77.7001H6.60005C5.90005 77.7001 5.55005 77.35 5.55005 76.65V65.8H52.8V76.65C52.8 77.35 52.1001 77.7001 51.4001 77.7001Z" fill="#6E6E6E"/>
<path d="M20.25 69.3V74.55H36.7H37.75V69.3H36.7H20.25Z" fill="#6E6E6E"/>
<path d="M13.6004 42H19.2004V32.2C19.2004 28.7 20.9504 26.95 23.4004 26.95C25.8504 26.95 27.2504 28.35 27.2504 31.5V42H32.8504V32.2C32.8504 28.7 34.6004 26.95 37.0504 26.95C39.5004 26.95 40.9004 28.35 40.9004 31.5V42H46.5004V30.8C46.5004 24.85 43.0004 22.05 38.4504 22.05C35.6504 22.05 32.8504 23.1 31.4504 25.2C30.0504 23.1 27.6004 22.05 25.1504 22.05C22.3504 22.05 19.9004 23.1 18.5004 25.2L18.1504 22.4H11.1504V26.6H13.2504V42H13.6004Z" fill="#6E6E6E"/>
</svg>
