<svg width="74" height="67" viewBox="0 0 74 67" fill="none" xmlns="http://www.w3.org/2000/svg">
<path d="M73.3834 66.3499H0.925049V16.1624H73.3834V66.3499ZM5.55005 61.7874H68.7584V20.7249H5.55005V61.7874ZM39.4667 57.8333H34.8417V54.1833C31.7584 53.5749 28.9834 52.0541 28.0584 49.6208L32.375 47.7958C32.6834 48.7083 33.6084 49.3166 34.8417 49.6208V42.6249C31.7584 41.4083 28.6751 39.8874 28.6751 35.6291C28.6751 32.2833 30.8334 29.8499 34.2251 28.9374C34.5334 28.9374 34.5334 28.9374 34.8417 28.9374V24.3749H39.4667V28.6333C41.9334 28.9374 44.0917 30.1541 45.3251 31.9791L41.3167 34.4124C41.0084 34.1083 40.3917 33.4999 39.4667 33.1958V39.2791C42.8584 40.4958 46.5584 42.3208 46.5584 47.1874C46.5584 50.5333 44.0917 53.2708 39.775 54.1833H39.4667V57.8333ZM39.4667 44.1458V49.3166C40.7001 49.0124 41.9334 48.4041 41.9334 46.8833C41.6251 45.6666 41.0084 45.0583 39.4667 44.1458ZM34.8417 33.4999C33.3 34.1083 33.3 35.3249 33.3 35.6291C33.3 36.5416 33.6084 37.1499 34.8417 37.7583V33.4999ZM64.7501 13.1208H9.25005V8.55827H64.7501V13.1208ZM58.5834 5.5166H15.4167V0.954102H58.5834V5.5166Z" fill="#6E6E6E"/>
</svg>
