<svg width="74" height="74" viewBox="0 0 74 74" fill="none" xmlns="http://www.w3.org/2000/svg">
<path fill-rule="evenodd" clip-rule="evenodd" d="M19.2708 19.7333C19.2708 10.8403 26.3823 2.3125 37 2.3125C47.7025 2.3125 54.7291 11.5472 54.7291 20.0417V30.2495L48.5625 36.4162V40.1001L69.9064 49.2476L73.1977 68.9948L68.6356 69.7552L65.7601 52.5024L43.9375 43.1499V34.5005L50.1041 28.3338V20.0417C50.1041 13.7361 44.7974 6.9375 37 6.9375C29.1176 6.9375 23.8958 13.2097 23.8958 19.7333V28.3338L30.0625 34.5005V43.1499L8.23978 52.5024L5.36432 69.7552L0.802246 68.9948L4.09346 49.2476L25.4375 40.1001V36.4162L19.2708 30.2495V19.7333Z" fill="#6E6E6E"/>
</svg>
