<svg width="320" height="257" viewBox="0 0 320 257" fill="none" xmlns="http://www.w3.org/2000/svg">
<path d="M279.945 66.2834V79H229.079V69.0387L258.115 34.704H229.821V21.9874H278.991V31.9487L249.955 66.2834H279.945ZM307.388 40.7444V79H290.857V53.143L285.028 57.4878L278.882 49.2221L290.857 40.2145V0.369309H307.388V27.7099L313.217 23.3651L319.257 31.8428L307.388 40.7444Z" fill="#AE0000"/>
<path d="M118.668 256.605C98.5027 256.605 80.5396 251.622 64.7784 241.655C49.0172 231.689 36.6169 217.318 27.5774 198.544C18.7697 179.538 14.3658 156.939 14.3658 130.748C14.3658 104.556 18.7697 82.0734 27.5774 63.2991C36.6169 44.293 49.0172 29.8066 64.7784 19.84C80.5396 9.8734 98.5027 4.8901 118.668 4.8901C138.833 4.8901 156.796 9.8734 172.557 19.84C188.318 29.8066 200.603 44.293 209.41 63.2991C218.45 82.0734 222.97 104.556 222.97 130.748C222.97 156.939 218.45 179.538 209.41 198.544C200.603 217.318 188.318 231.689 172.557 241.655C156.796 251.622 138.833 256.605 118.668 256.605ZM118.668 208.974C133.502 208.974 145.091 202.6 153.435 189.852C162.011 177.104 166.299 157.403 166.299 130.748C166.299 104.093 162.011 84.3913 153.435 71.6433C145.091 58.8953 133.502 52.5213 118.668 52.5213C104.065 52.5213 92.4763 58.8953 83.9004 71.6433C75.5563 84.3913 71.3842 104.093 71.3842 130.748C71.3842 157.403 75.5563 177.104 83.9004 189.852C92.4763 202.6 104.065 208.974 118.668 208.974Z" fill="#AE0000"/>
</svg>
