<svg width="102" height="76" viewBox="0 0 102 76" fill="none" xmlns="http://www.w3.org/2000/svg">
<path d="M12.9036 75.5332L90.2536 75.5332C96.6994 75.5332 101.856 70.3765 101.856 63.9307L101.856 12.364C101.856 5.91819 96.6994 0.331794 89.8239 0.331794L12.4738 0.331787C6.02801 0.331786 0.441626 5.48846 0.441625 12.364L0.441621 63.9307C0.871338 70.3765 6.02801 75.5332 12.9036 75.5332ZM90.2536 69.0874L12.9036 69.0874C9.89551 69.0874 7.31717 66.509 7.31717 63.501L7.31717 62.6415L95.4102 62.6415L95.4102 63.9307C95.4102 66.9388 93.2616 69.0874 90.2536 69.0874ZM7.31717 56.1957L7.31717 49.7499L95.4102 49.7499L95.4102 56.1957L51.3637 56.1957L7.31717 56.1957ZM12.9036 6.77763L90.2536 6.77764C93.2616 6.77764 95.84 9.35597 95.84 12.364L95.84 43.7338L7.7469 43.7337L7.7469 12.364C7.31717 9.35596 9.89551 6.77763 12.9036 6.77763Z" fill="#6E6E6E"/>
<path d="M14.1328 35.0719H33.4703V15.7344H14.1328V35.0719ZM20.5786 21.7505H27.0244V28.1963H20.5786V21.7505Z" fill="#6E6E6E"/>
</svg>
