<svg width="59" height="82" viewBox="0 0 59 82" fill="none" xmlns="http://www.w3.org/2000/svg">
<path d="M51.4 0.69165H6.60005C3.10005 0.69165 0.300049 3.45832 0.300049 6.91665V75.3916C0.300049 78.85 3.10005 81.6166 6.60005 81.6166H51.75C55.25 81.6166 58.05 78.85 58.05 75.3916V7.26248C58.05 3.80415 54.9 0.69165 51.4 0.69165ZM6.60005 6.22498H51.75C52.45 6.22498 52.8 6.57082 52.8 7.26248V60.175H5.20005V7.26248C5.20005 6.57082 5.90005 6.22498 6.60005 6.22498ZM51.4 76.775H6.60005C5.90005 76.775 5.55005 76.4291 5.55005 75.7375V65.0166H52.8V75.7375C52.8 76.4291 52.1 76.775 51.4 76.775Z" fill="#6E6E6E"/>
<path d="M20.25 68.4751V73.6626H36.7H37.75V68.4751H36.7H20.25Z" fill="#6E6E6E"/>
<path d="M13.6 41.5001H19.2V31.8168C19.2 28.3584 20.95 26.6293 23.4 26.6293C25.85 26.6293 27.25 28.0126 27.25 31.1251V41.5001H32.85V31.8168C32.85 28.3584 34.6 26.6293 37.05 26.6293C39.5 26.6293 40.9 28.0126 40.9 31.1251V41.5001H46.5V30.4334C46.5 24.5543 43 21.7876 38.45 21.7876C35.65 21.7876 32.85 22.8251 31.45 24.9001C30.05 22.8251 27.6 21.7876 25.15 21.7876C22.35 21.7876 19.9 22.8251 18.5 24.9001L18.15 22.1334H11.15V26.2834H13.25V41.5001H13.6Z" fill="#6E6E6E"/>
</svg>
