<svg width="17" height="22" viewBox="0 0 17 22" fill="none" xmlns="http://www.w3.org/2000/svg">
<path d="M11.1 0H0V21.5H16.5V5.4L11.1 0ZM11.5 2.6L13.9 5H11.5V2.6ZM1.5 20V1.5H10V6.5H15V20H1.5Z" fill="#AE0000"/>
<path d="M3.5 12.8H2V19.3H3.5V17.3C4.7 17.3 5.7 16.3 5.7 15.1C5.7 13.9 4.7 12.8 3.5 12.8ZM3.5 15.8V14.3C3.9 14.3 4.3 14.6 4.3 15.1C4.3 15.6 3.9 15.8 3.5 15.8Z" fill="#AE0000"/>
<path d="M8.2 12.8H6V19.3H8.2C9.4 19.3 10.4 18.3 10.4 17.1V15.1C10.5 13.8 9.5 12.8 8.2 12.8ZM9 17C9 17.4 8.7 17.8 8.2 17.8H7.5V14.3H8.3C8.7 14.3 9 14.6 9 15V17Z" fill="#AE0000"/>
<path d="M11.8 12.8H11V19.3H12.5V17.1H13.8V15.6H12.5V14.3H14.6V12.8H12.5H11.8Z" fill="#AE0000"/>
</svg>
