<svg width="72" height="95" viewBox="0 0 72 95" fill="none" xmlns="http://www.w3.org/2000/svg">
<g clip-path="url(#clip0)">
<path d="M13.6556 65.539C18.6671 60.1373 13.7456 42.8818 13.7456 42.8818C13.7456 42.8818 4.02254 23.1056 17.0166 18.2741C29.3505 13.7127 32.3214 32.2885 32.2614 47.3532C32.2014 57.0463 35.2023 69.4102 22.4183 78.7131" stroke="#6E6E6E" stroke-width="3.60113" stroke-linecap="round" stroke-linejoin="round"/>
<path d="M17.8269 72.081C27.79 65.5089 25.8394 44.9825 18.4271 25.8965" stroke="#6E6E6E" stroke-width="3.60113" stroke-linecap="round" stroke-linejoin="round"/>
<path d="M55.9389 19.4444C45.1955 13.6526 36.5828 11.1018 27.3999 13.0524" stroke="#6E6E6E" stroke-width="3.60113" stroke-linecap="round" stroke-linejoin="round"/>
<path d="M38.5934 30.7581C45.4056 29.1676 48.8567 30.458 53.5381 32.1085C57.9495 33.639 56.8692 34.5993 63.0511 34.9894" stroke="#6E6E6E" stroke-width="3.60113" stroke-linecap="round" stroke-linejoin="round"/>
<path d="M41.7744 36.1898C33.4018 52.815 49.8169 61.2476 27.82 85.0751" stroke="#6E6E6E" stroke-width="3.60113" stroke-linecap="round" stroke-linejoin="round"/>
<path d="M34.152 91.287C39.0736 78.3229 51.4975 70.4004 48.1364 57.6164C44.4453 43.632 46.5759 43.3019 52.1877 38.0803" stroke="#6E6E6E" stroke-width="3.60113" stroke-linecap="round" stroke-linejoin="round"/>
<path d="M65.872 42.0416C55.2186 39.9709 56.0289 46.9631 56.389 61.0675" stroke="#6E6E6E" stroke-width="3.60113" stroke-linecap="round" stroke-linejoin="round"/>
<path d="M59.9001 27.5771C45.7357 25.8966 43.695 19.5045 34.7822 21.3651" stroke="#6E6E6E" stroke-width="3.60113" stroke-linecap="round" stroke-linejoin="round"/>
<path d="M67.0724 49.9641C60.9505 50.8643 69.5032 64.6087 55.1287 69.5902" stroke="#6E6E6E" stroke-width="3.60113" stroke-linecap="round"/>
<path d="M9.81437 59.117C3.36234 48.0436 1.17165 37.3302 2.85218 28.4174C5.34297 15.2132 16.2664 5.91031 34.3021 5.04004C40.6641 5.46017 46.4859 5.58021 51.9776 11.7021" stroke="#6E6E6E" stroke-width="3.60113" stroke-linecap="round"/>
<path d="M53.268 75.7422C49.5169 76.5524 41.4443 86.9357 42.2546 93.8079" stroke="#6E6E6E" stroke-width="3.60113" stroke-linecap="round"/>
<path d="M63.7413 76.9726C59.0899 76.5825 51.4675 82.4643 51.6475 89.3365" stroke="#6E6E6E" stroke-width="3.60113" stroke-linecap="round"/>
<path d="M64.7916 85.9454C68.8429 83.6347 71.8138 74.4818 67.7926 68.9301" stroke="#6E6E6E" stroke-width="3.60113" stroke-linecap="round"/>
</g>
<defs>
<clipPath id="clip0">
<rect width="72" height="94.4567" fill="white"/>
</clipPath>
</defs>
</svg>
