<svg width="124" height="100" viewBox="0 0 124 100" fill="none" xmlns="http://www.w3.org/2000/svg">
<path d="M96.6366 25.8668L107.82 12.6427V8.80612H88.8817V13.7039H99.7794L88.596 26.928V30.7646H108.187V25.8668H96.6366ZM123.328 12.6019L121.002 9.33672L118.757 11.0101V0.479838H112.39V15.8263L107.778 19.2956L110.145 22.4792L112.39 20.8058V30.7646H118.757V16.0304L123.328 12.6019Z" fill="#6E6E6E"/>
<path d="M46.0709 99.6098C69.2368 99.6098 86.243 82.068 86.243 51.1355C86.243 20.2029 69.2368 2.66111 46.0709 2.66111C23.0389 2.66111 5.89877 20.2029 5.89877 51.1355C5.89877 82.068 23.0389 99.6098 46.0709 99.6098ZM46.0709 81.2645C35.3583 81.2645 27.8595 72.4267 27.8595 51.1355C27.8595 29.8442 35.3583 21.0064 46.0709 21.0064C56.9174 21.0064 64.4161 29.8442 64.4161 51.1355C64.4161 72.4267 56.9174 81.2645 46.0709 81.2645Z" fill="#6E6E6E"/>
</svg>
