<svg width="74" height="73" viewBox="0 0 74 73" fill="none" xmlns="http://www.w3.org/2000/svg">
<path d="M37 72.9532C17.2667 72.9532 0.925049 56.9199 0.925049 36.8782C0.925049 16.8365 17.2667 0.494873 37 0.494873C56.7334 0.494873 73.3834 16.8365 73.3834 36.8782C73.3834 56.9199 57.0417 72.9532 37 72.9532ZM37 5.11987C19.7334 5.11987 5.55005 19.3032 5.55005 36.8782C5.55005 54.4532 19.7334 68.3282 37 68.3282C54.2667 68.3282 68.7584 54.1449 68.7584 36.8782C68.7584 19.6115 54.575 5.11987 37 5.11987Z" fill="#6E6E6E"/>
<path d="M27.75 33.4866C23.125 33.4866 19.1167 29.4783 19.1167 24.8533C19.1167 20.2283 23.125 16.22 27.75 16.22C32.375 16.22 36.3834 20.2283 36.3834 24.8533C36.075 29.4783 32.375 33.4866 27.75 33.4866ZM27.75 20.845C25.5917 20.845 23.7417 22.695 23.7417 24.8533C23.7417 27.0116 25.5917 28.8616 27.75 28.8616C29.9084 28.8616 31.7584 27.0116 31.7584 24.8533C31.45 22.695 29.9084 20.845 27.75 20.845Z" fill="#6E6E6E"/>
<path d="M46.25 57.8448C41.625 57.8448 37.6167 53.8365 37.6167 49.2115C37.6167 44.5865 41.625 40.5781 46.25 40.5781C50.875 40.5781 54.8834 44.5865 54.8834 49.2115C54.8834 53.8365 50.875 57.8448 46.25 57.8448ZM46.25 45.2031C44.0917 45.2031 42.2417 47.0531 42.2417 49.2115C42.2417 51.3698 44.0917 53.2198 46.25 53.2198C48.4084 53.2198 50.2584 51.3698 50.2584 49.2115C50.2584 47.0531 48.4084 45.2031 46.25 45.2031Z" fill="#6E6E6E"/>
<path d="M49.3122 17.1047L21.1321 53.7764L24.7992 56.5944L52.9794 19.9228L49.3122 17.1047Z" fill="#6E6E6E"/>
</svg>
