<svg width="65" height="81" viewBox="0 0 65 81" fill="none" xmlns="http://www.w3.org/2000/svg">
<g clip-path="url(#clip0_934_917)">
<path d="M32.5 81L31.0764 80.0561C29.7917 79.2171 0 59.0807 0 32.7216C0 14.6828 14.5833 0 32.5 0C50.4167 0 65 14.6828 65 32.7216C65 59.0807 35.2083 79.2171 33.9236 80.0561L32.5 81ZM32.5 5.24385C17.4653 5.24385 5.20833 17.5844 5.20833 32.7216C5.20833 53.1726 26.7014 70.3725 32.5 74.6375C38.3333 70.3375 59.7917 53.1377 59.7917 32.7216C59.7917 17.5494 47.5347 5.24385 32.5 5.24385Z" fill="#6E6E6E"/>
<path d="M32.4305 54.4662C21.0416 54.4662 11.7708 45.1321 11.7708 33.6656C11.7708 22.199 21.0416 12.865 32.4305 12.865C43.8194 12.865 53.0902 22.199 53.0902 33.6656C53.0902 45.1321 43.8194 54.4662 32.4305 54.4662ZM32.4305 18.1088C23.9235 18.1088 16.9791 25.1006 16.9791 33.6656C16.9791 42.2305 23.9235 49.2223 32.4305 49.2223C40.9374 49.2223 47.8819 42.2305 47.8819 33.6656C47.8819 25.1006 40.9374 18.1088 32.4305 18.1088Z" fill="#6E6E6E"/>
</g>
<defs>
<clipPath id="clip0_934_917">
<rect width="65" height="81" fill="white"/>
</clipPath>
</defs>
</svg>
