<svg width="116" height="115" viewBox="0 0 116 115" fill="none" xmlns="http://www.w3.org/2000/svg">
<path d="M76.264 23.2541C73.3209 23.74 69.8871 21.7962 65.9629 18.3945C52.2281 4.78786 32.607 15.9648 31.6259 16.4507L35.0596 22.7681C35.5501 22.2822 50.7565 14.021 60.5671 23.74C65.4724 28.5996 70.3777 31.0293 75.283 31.0293C75.7735 31.0293 76.264 31.0293 76.7546 31.0293C85.0935 30.0574 90.4894 22.2822 93.4325 17.4226L90.4893 15.4788L87.0557 14.021C85.0935 16.9367 81.1693 22.7681 76.264 23.2541Z" fill="#6E6E6E"/>
<path d="M65.9629 30.0574L62.5292 36.3748C67.4345 38.8046 71.8492 39.7765 75.7734 39.7765C87.5461 39.7765 95.3946 30.5434 99.3188 25.1979C100.3 24.7119 100.79 23.74 101.281 23.2541L95.8851 18.3945C95.3946 18.8805 94.9041 19.8524 93.923 20.8243C86.5651 30.0574 79.6977 36.8607 65.9629 30.0574Z" fill="#6E6E6E"/>
<path d="M67.4346 40.2624L64.9819 47.0658C69.3967 48.5236 73.3209 49.0096 76.7546 49.0096C91.961 49.0096 101.772 37.3467 107.167 31.5153C107.658 31.0293 108.148 30.0574 108.639 29.5714L103.243 24.7119C102.753 25.1979 102.262 26.1698 101.281 26.6557C95.3947 34.431 84.6031 46.5798 67.4346 40.2624Z" fill="#6E6E6E"/>
<path d="M45.8512 107.324C64.9818 76.7091 62.5292 50.9535 62.0387 48.0378C62.0387 35.403 51.7376 25.198 38.4933 25.198C25.7396 25.198 15.4385 35.403 15.4385 48.5238C15.4385 49.9816 15.4385 51.4395 15.929 52.8974C15.929 52.8974 17.4006 62.6164 12.4953 72.3355C9.55211 66.504 8.08052 59.7007 8.08052 52.8974C8.08052 28.1138 28.1922 8.18968 53.2092 8.18968C63.0197 8.18968 72.3398 11.1054 80.1882 16.9368L84.603 11.1054C75.283 4.30206 64.4913 0.900391 53.2092 0.900391C24.7585 0.900391 0.722595 24.2261 0.722595 52.8974C0.722595 64.0743 4.1563 74.7652 11.0237 83.9983L35.5501 113.156L41.4365 108.296L37.0217 103.436C55.6618 74.2793 52.7186 49.4957 52.7186 49.0097C52.7186 41.2345 46.3418 35.403 38.9838 35.403C31.1354 35.403 25.249 41.7204 25.249 49.0097C25.249 49.9816 25.249 50.9535 25.7396 51.9254C25.7396 51.9254 28.6827 66.0181 18.8722 81.5686L17.4006 79.6248C25.7396 66.504 23.7774 52.4114 23.7774 51.4395C23.7774 50.4676 23.2869 49.4957 23.2869 48.0378C23.2869 39.2907 30.6448 32.4873 38.9838 32.4873C47.3228 32.4873 54.6807 39.7766 54.6807 48.0378V48.5238C54.6807 49.0097 57.6239 73.7933 39.4744 103.436L45.8512 107.324ZM32.607 49.9816C32.607 49.4957 32.607 49.0097 32.607 48.5238C32.607 45.1221 35.5501 42.2064 38.9838 42.2064C42.4175 42.2064 45.3607 45.1221 45.3607 49.0097C45.3607 49.0097 47.8133 71.3636 32.1164 97.1191L30.1543 94.6893C47.8133 66.99 42.4175 47.5519 41.927 46.58L35.0596 48.5238C35.0596 48.5238 39.4744 65.0462 25.249 88.8579L23.2869 86.9141C36.0407 68.4479 32.607 50.9535 32.607 49.9816Z" fill="#6E6E6E"/>
<path d="M88.0368 61.1588L89.5084 60.1868C104.715 49.9818 115.506 36.8611 115.997 35.8892L110.111 31.5156C110.111 31.5156 99.3189 44.6364 85.0936 54.3554L83.622 55.3273C67.9251 65.5323 52.2282 76.2233 61.0577 114.128L68.4156 112.184C60.5672 79.139 73.3209 70.8778 88.0368 61.1588Z" fill="#6E6E6E"/>
<path d="M90.4893 62.6168C89.5083 63.1027 88.5272 64.0746 87.0557 64.5606C74.7924 72.3358 62.0387 80.597 71.3587 114.128L78.7167 112.184C70.8682 83.5127 80.1882 77.6813 91.4704 70.392C92.4515 69.906 93.923 68.9341 94.9041 68.4482C107.167 60.187 115.016 50.9539 115.506 50.4679L109.62 45.6084C109.62 46.0944 102.262 54.8415 90.4893 62.6168Z" fill="#6E6E6E"/>
<path d="M103.243 73.7933C96.3757 71.8495 88.5273 74.2793 83.1314 79.6248C77.7356 84.9702 76.264 92.2595 78.2262 100.521C78.7167 102.95 80.1883 104.894 81.6599 107.324C82.6409 108.782 83.622 110.726 84.1125 111.698H91.4704C91.4704 109.268 89.9989 106.352 88.0367 103.436C87.0557 101.979 86.0746 100.035 85.5841 98.5769C84.1125 92.7455 85.0936 87.886 88.5273 84.4843C92.4515 80.5967 97.8473 79.6248 101.281 80.5967C105.696 81.5686 108.639 84.9702 108.639 85.4562L111.582 83.0264L114.525 80.5967C114.525 80.5967 110.111 75.7371 103.243 73.7933Z" fill="#6E6E6E"/>
<path d="M100.79 90.8016L104.224 94.6892L109.62 89.8297L105.696 85.9421C101.772 82.0545 94.9041 82.0545 90.4894 85.9421C86.5651 89.8297 86.5651 96.6331 90.4894 101.007L90.9799 101.493C92.942 102.95 98.3378 107.324 98.3378 112.184H105.696C105.696 103.436 97.3568 97.605 95.3947 96.1471C94.4136 94.6892 94.4136 92.7454 95.3947 91.7735C97.3568 89.8297 99.3189 89.8297 100.79 90.8016Z" fill="#6E6E6E"/>
</svg>
